<svg xmlns="http://www.w3.org/2000/svg" width="512" height="512" viewBox="0 0 512 512"><path fill="#fff" fill-rule="evenodd" d="m420 46-7 18c-12 36-41 128-52 167l-6 22q-4 11-3 5l-4-16-4-16-2-10q-2-6-2-13 0-12-7-19-4-3-2-8c2-5 1-25-1-32q-6-17-23-19-16-1-25 14-5 11-1 20 5 6-6 6-11 1-24 14-8 8-13 9-12 5-18 15-5 10 0 22 3 6 1 9l-6 7q-6 6-7 4l-38-23c-75-45-103-62-105-62l-3 2c-4 3-3 4 70 48l70 45c-3 2-7 13-8 20l-2 11v5c2 4 1 18-1 27l-3 14-3 13q-5 17-4 26l3 14 2 24c0 11 0 13 2 19l3 11q3 8 11 12 10 6 19 1l5-2q6-1 6-8 0-5-7-14c-5-5-11-17-13-22q-3-12 2-28c3-9 3-12 3-22 0-13 2-21 10-37l5-16 1-7c1 0 8 16 8 19l2 8c2 4 2 5 1 11-2 13-1 18 3 28q7 14 4 28-5 16-2 23 4 5 17 5 8 0 12 2 12 5 20 2 14-6 12-13c-2-4-9-9-13-9q-4-1-20-18l-1-18-2-29 1-17q2-4-1-10l-1-6 5 2q4 2 4 7c2 10 8 15 32 22l7-4c8-6 9-10 9-23v-9l2 3 3 4 1-1 3-1v1q-2 0-2 2v3q5 3 11-1 5-3 6-13 1-5 4-9c3-5 3-6 3-13s0-10 6-30l58-185c2-8 2-8 0-11q-3-4-5 0m-123 82q1 0 0 0v-1zm9 0a1 1 0 0 0 2 0l-1-1zm-7 6a1 1 0 0 0 2 0l-1-1zm9 0q1 0 0 0v-1zm-10 2q-10 3-10 14 0 4 2 2l6-2q4 0 5 2-1 4-4 5-6 1 2 7 6 5 2 7-3 2 0 4 8 9 18 5 7-3 4-26-3-19-16-18zm-11 21a1 1 0 0 0 0-2zm1 9q1 0 0 0v-1zm-1 3q-3 5-12 5-11 2-8 5 4 3-5 6l-6 4h2c3-3 11-3 12 0q2 2 3 1h5q4 1 5-1l1-6q0-5 3-8 4-9 0-6m3 3q1 0 0 0v-1zm-214 3q1 0 0 0v-1zm13 1q1 0 0 0v-1zm-8 2q1 0 0 0v-1zm11 0q1 0 0 0v-1zm2 1q1 0 0 0v-1zm165 1a1 1 0 0 0 2 0l-1-1zm33 5q-1 6-3 7-4 2 2 3 4 2 3-1l2-4q1-2 3 1l4 5 1 1 2-4 3-3-4-1-8-5-4-4zm35-4q1 0 0 0v-1zm-228 1q1 0 0 0v-1zm154 1q1 0 0 0v-1zm-151 1q1 0 0 0v-1zm148 1q-2 2 0 0l2-2zm72 1a1 1 0 0 0 2 0l-1-1zm-213 2q1 0 0 0v-1zm138 1q1 0 0 0v-1zm63 0q1 0 0 0v-1zm13 2h-8q-3 0-2 3l1 3 3 1q2 2-1 5l-6 6-4 4-2 3q-2 2-6-6-2-5-8-6l-9-4q-7-3-9 0-2 2-5-1-4-5-6-2l2 5q3 4 4 9l1 3c1-2 9-1 12 2q7 7 7 13-1 5 5 1 4-1 5-6c1-8 7-9 8-2l1 3 6-6 7-9q1-6 6-4 4 1-2 12-3 4-1 10 1 8 6 12 1 3 3-1 3-6 5-1c2 5 0 14-4 14q-5 0 2 13l4 11 2 5 2-4q5-10-2-33-5-15-6-26l-3-4q-2-2-2-6c2-10 2-11 0-13l-3-4q-2-3-3 0m-71 1q1 0 0 0v-1zm76 1q1 0 0 0v-1zm-44 1q1 0 0 0v-1zm-35 1-3 1q-7 0-11 8-1 4-4 3h-4q-1 1 3 1 5-1 4 2c0 4 4 12 6 15l11 6q2 2 4-4 6-12 2-21l-2-8c-1-3-6-6-6-3m24 1v-1q0-1 0 0zm3 0v-1q0-1 0 0zm20 2v-1q0-1 0 0zm-67 3 1-2zm80 0q1 0 0 0v-1zm-7 3q1 0 0 0v-1zm3 6q1 0 0 0v-1zm-78 3q0 3 1 2v-4q-1-1-1 2m38 4v-2zm-117 1q1 0 0 0v-1zm119 3q-3 3 2 9l5 10 1 6 5-3q6-4 2-4l-3-2v-2q4-2-1-8-8-10-11-6m6-1q1 0 0 0v-1zm63 2q1 0 0 0v-1zm-169 1q1 0 0 0v-1zm-9 1q1 0 0 0v-1zm71 1a1 1 0 0 0 0-2zm2 0q1 0 0 0v-1zm72 2a1 1 0 0 0 0-2zm11 0v1l1-1v-1zm-139 1q1 0 0 0v-1zm86 3q1 0 0 0v-1zm48 2-7 2q-4-1-9 6l-12 11-5 5 4 7 7 12q7 15 15 17l18 3 6 2 2 2v-4l2-8q3-7-4-20c-4-7-4-9-5-16l-1-9-6-11q1-4-5 1m-72-1q1 0 0 0v-1zm48 1q1 0 0 0v-1zm-100 1q1 0 0 0v-1zm67 0q1 0 0 0v-1zm46 0q1 0 0 0v-1zm-69 2-7 8q-6 7-4 7l6 4 4 2 2-2 4-2q2 0-1-4l-3-10q0-7-1-3m32-1q1 0 0 0v-1zm-22 2q0 7 7 16l9 14 5 10 13 8 14 8-1-3-7-12q-5-9-11-14l-7-7v4q-1 6 4 10c5 5 7 12 2 9-2-1-9-12-9-13l-1-1c-3-2-8-15-7-17q3-1 8 4l1 2 1-2v-9l-2-6-5 1q-5 0-9-2-6-3-5 0m-58 1q1 0 0 0v-1zm106 1q1 0 0 0v-1zm-87 4q1 0 0 0v-1zm130 2q1 0 0 0v-1zm-120 3a1 1 0 0 0 0-2zm56 1a1 1 0 0 0 0-2zm8 0q1 0 0 0v-1zm54 0 1 1 1-1-2-1zm-116 0 2 2 2 1-2-2zm54 3q1 0 0 0v-1zm-61 1a1 1 0 0 0 2 0l-1-1zm4 2q1 0 0 0v-1zm65 0q1 0 0 0v-1zm-40 3-2 2 6 3 7 4c2 0-2-6-5-9l-3-3zm34-2q1 0 0 0v-1zm-61 6q-5 10-5 21v6l6 2q4 3 10 1 11-1 10-6 0-6 6-10l3-2c0-1-25-17-27-17zm23-1q1 0 0 0v-1zm44 0q1 0 0 0v-1zm-41 2q1 0 0 0v-1zm5 3q1 0 0 0v-1zm14 0q1 0 0 0v-1zm98 1a1 1 0 0 0 0-2zm2-1v-1q0-1 0 0zm-121 1v-1q0-1 0 0zm12 1v-1q0-1 0 0zm3 2-1-1zm-10 0v-1q0-1 0 0zm3 2-1-1zm11 0-1-1zm103 1a1 1 0 0 0 0-2zm-112 1 1 1v-1zm104 0q1 0 0 0v-1zm-9 1q1 0 0 0v-1zm-90 2q1 0 0 0v-1zm12 0 1 1zl-1-1zm-9 1 1 1zl-1-1zm102 0a1 1 0 0 0 0-2zm-106 2-5 2-3 1 5 1q9 1 11-1l-6-4zm6-1v-1q0-1 0 0zm81 1v-1q0-1 0 0zm19 1 1-2zm-97 1q1 0 0 0v-1zm83 0 1 2v-1q0-3-1-1m-81 1 2 1-1-1-1-1zm90 0-1-1zm-112 2-1-1zm25 0a1 1 0 0 0 0-2zm88-1q-1 0 0 0m-86 2 2 1-1-1-1-1zm87 0q-1 0 0 0m-88 1q-1 0 0 0m85 2q-1 2 0 0l1-2zm-78 0 1 1zl-1-1zm-32 1q1 0 0 0v-1zm20 1-8 2h-5l3 6 4 6 1-2 2-2 2 2 4 5q1 3 3-4 6-10 1-13-3-3-7 0m14-1 2 2q2 2 0 0zm66 1q1 0 0 0m-3 1 1-2zm-100 2a1 1 0 0 0 2 0zm102 0q1 0 0 0v-1zm6 0q1 0 0 0v-1zm-49 1q1 0 0 0v-1zm-92 2v-2zm140-1q1 0 0 0v-1zm8 1q1 0 0 0v-1zm-122 1q1 0 0 0v-1zm-24 8-1 10 3-1c3-2 11-4 11-2h1l2 2q1 5 4-5c3-10 3-10-5-9l-11-1-4-2zm70-8 1 1q1 0 0 0zm12 1 1 1-1-2zm11 0a1 1 0 0 0 2 0l-1-1zm5 0h2q1-1-1-1-3 0-1 1m-8 1a1 1 0 0 0 2 0l-1-1zm43 0a1 1 0 0 0 0-2zm-40 0v-1q0-1 0 0zm12 1a1 1 0 0 0 2 0l-1-1zm-17 2 2 2h1l-1-1zq-1-2-1 1m52-1a1 1 0 0 0 2 0l-1-1zm-57 1a1 1 0 0 0 0-2zm7-1v-1q0-1 0 0zm22 1-1-1zm10-1v-1q0-1 0 0zm-7 1v-1q0-1 0 0zm-17 2q0 2 8 9l7 8 3-3 3-3h-2q-3 0-6-4l-8-6zm29-1q-1 0 0 0m-10 2q-1 0 0 0m-29 3q0 2 1 1v-2q-1-1-1 1m30-1q-1 0 0 0m-26 2q-1 0 0 0m-42 4q1 5 4 9 4 8 1 13l-1 1h-2v9l4 14q3 5 3 15c0 12 1 14 3 14l1 3 1 6q1 5-2 6l-4-2-2-2v7l10 1q11 0 13 2c5 2 15 3 19 2l2-2h-3l-8-4c-5-4-19-18-21-22q-2-3-2-20l-2-28 1-17 1-8-4 2q-4 6-9 0l-3-2zm-9-1q1 0 0 0v-1zm51 0 2 3q3 2 0-1zm30 0q1 0 0 0v-1zm-33 1 2 2v-1zm4 4q1 0 0 0v-1zm2 1q1 0 0 0v-1zm3 1q1 0 0 0v-1zm4 0 1 1zl-1-1zm-106 5c-1 5-1 7 2 17l3 12 7-16q2-2-1-1l-4-2q-3-6 0-5l1-1 4-1q4 1 5-2c2-5-4-7-8-3q-1 3-2 2l-1 1c0 2-4-2-4-4q0-2-2 3m117-1q1 0 0 0v-1zm-68 3q0 2 1 1v-2q-1-1-1 1m-52 3q1 0 0 0v-1zm0 2q1 0 0 0v-1zm19 0q1 0 0 0v-1zm32 1a1 1 0 0 0 0-2zm-33 0v-1q0-1 0 0zm38 2v-2zm-58 12q1 0 0 0v-1zm-1 7q-4 9 1 27 3 12 2 20 0 10 2 5l4-4q3-1 2-10l1-12q2-4-1-6-4-3-1-14 2-5-1-3-3 3-6-3l-2-3zm18 2v-2zm-22 16q1 0 0 0v-1zm19 0 1 1 1-2h-1zm-22 9q1 0 0 0v-1zm93 4q1 0 0 0v-1zm-19 5a1 1 0 0 0 0-2zm-1 4-1 3q2 1 2-3zm-65 1q1 0 0 0v-1zm11 7q1 0 0 0v-1zm1 4q1 0 0 0v-1zm-12 1q1 0 0 0v-1zm0 2q1 0 0 0v-1zm0 2 1 2v-1q0-3-1-1m7 4-4 4 3 9 4 8 8-1c8-1 8-1 11 2q6 6-4-7l-9-13-4-7zm1 25q1 0 0 0v-1z"/></svg>