<svg xmlns="http://www.w3.org/2000/svg" width="512" height="512" viewBox="0 0 512 512"><path fill="#fff" fill-rule="evenodd" d="M314 51q-10 4-22 16c-5 6-5 6-5 10l3 7v9l-2 6-6 1q-26 8-36 18l-3 4v8c1 7 1 7-4 16l-4 9q-1 5-3 5l-1-9q0-9-3-13-10-14-24-3-4 4-7 1l-3-3c0-8-7-18-13-19q-8-1-15 5-9 9-12 23v14c4 16 18 21 28 10l3-3 4 3 4 6 3 6c3 4 10 7 13 7q3-1 4 1 3 1 0 1-4 0-11 6-4 4-9 4l-27 4-19 8c-14 7-15 8-27 20l-14 15q-3 3 2 12l5 15 3 11q4 3 8 20c3 11 5 15 12 27 4 6 4 7 4 16v9l-7 9a75 75 0 0 1-19 21q-8 5-8 10-4 7 3 13 4 6 16 1l11-3 10-7c8-6 10-7 19-10 15-3 17-6 17-18l-1-9 5 2c10 2 10 3 9 5l-2 5-7 10c-8 11-11 14-16 17-6 3-15 11-17 16v5c1 3 3 4 15 8 9 3 11 3 17 3q15-2 27-13 14-16 15-20l6-21 4 1 4 2 5-3 12-6c3 1 3 1 4-9q2-9-1-10l-24-8c-3 0-3-5 0-7 2-2 54-34 84-51l15-9v-69l3 1h8q7 2 12-10l4-6v-18c0-16-1-18-3-22q-3-5-3-14 0-10-3-14l-2-4 6-7c6-7 8-10 7-17l-3-5-13-7q-2 1-2-8l-3-12q-6-9-16-14c-5-2-7-2-14-1m-4 8q-5 2-11 9c-7 7-7 8-5 16v10l-1 5h7q7 0 14 4 8 4 8 2l4-6q4-4 7-4 7 0 9-10 2-15-8-23-10-10-24-3m35 35q-6 5-11 6-3 0-6 4-4 5-2 6l7 1 11 4 5 3 5-7q12-13 0-18c-7-3-7-3-9 1m-60 10c-12 3-28 10-34 16-3 3-3 3-3 9v6l6-3q15-4 7-4c-7-1-1-4 7-4q5 0 4-3 1-6 4-1l3 3 7 4q9 9 17 11c4 1 4 1 8-2l5-4v-3q0-6 3-7l1 2q0 7 3 7 7 1 12 9c2 4 2 6 2 14v12q-3 4 4 4 9 5 11 11-1 3-6 0c-2-3-9-6-11-6l-2 3q-6 8-13 11l-4 1 4 4q14 10 26 11 7 1 10-11c2-5 2-7 2-21s-1-15-3-20q-3-5-3-12c0-17-11-27-25-24q-9 2-5-2 2-2-1-3l-11-4q-12-7-26-4m-112 18c-10 6-15 26-10 37q4 8 9 7h2l5-3 3-3-4-4c-4-5-4-5-4-9l3-8c2-3 9-7 11-6q3 1 1-3-5-14-16-8m100 7q-5 3-10 12c-3 7-4 18-2 25 1 5 7 11 10 11q6-1 9-5 3-1-3-7-6-4-5-9 1-9 6-14l6-3q5 1 3-3-5-9-14-7m-65 11q-8 9-8 23c-1 24 20 20 26-5v-12q-3-10-10-10-3 0-8 4m45-1q-5 2-7 8l-2 6-1 1-4 9-6 11q-5 6 1 5c4-1 23 2 30 4l6 1q2-1-3-3-7-1-10-10l-1-4-3 2q-8 6-1-3 4-3 3-10 1-10 4-18 2-5-6 1m-69-1c-5 3-7 11-2 15l6 6 4 3 2-6 3-10q5-10-5 2l-2 2v-2l3-6q3-4 0-3l-5 4q-5 6-4 2l2-5q3-5-2-2m133 2c-10 10-13 32-5 41s20-4 22-23q1-12-5-18-5-6-12 0m-25-1q1 0 0 0v-1zm-6 9q-7 9-3-1 2-5-3-1-3 5-4 11c0 1 8 9 15 13l8 6 3 2-1-7-3-9q-4-6 1-13 3-3 1-4-4-1-8 5-2 5-3 3t1-5l3-5h-2q-2 0-5 5m18-4a1 1 0 0 0 2 0l-1-1zm-76 25-6 9q-6 7 1 3l6-9q5-8 2-7l-1-1zm54 8-7 6-3 3 5 4 14 13 2 3 4-7 6-10 2-3-9-6-10-7zm-57 8v3q4 1 2 3-1 3-7 1h-7l-6 5-6 5h-10l-15 2h-4l5 3c12 6 20 22 17 33q-3 5 0 4l2-1 3-4q6-10 14-15 6-4 4-4-4-3 7-3 29 0 36 35l2 7 9-6 12-8q5-8 6-20v-10q2-2-2-8-6-9-14-14-12-8-34-9zm78 14-10 18q-1 1 1 4c1 3 1 4-1 12-3 12-5 16-14 21l-26 15v-3q6-6-3-2c-12 3-14 9-10 27l2 11 1 5q-1 2 37-21l36-21v-69l-3-3-4-3zm19 35v34l-16 9-40 24-24 14v5l-2 8 71-42 21-12v-68l-5-2-5-3zm-161-25-11 6q-17 7-23 16l-9 9-6 5 4 15 4 14 1 4q5 3 9 21 3 11 10 23l6 12v11c0 10 0 11-3 15l-8 10q-9 13-16 17-10 7-8 13t12 2l10-2q5-1 12-7c8-7 9-8 19-11l11-3q2-1 2-10c0-7-1-9-7-21-8-16-9-20-10-33q0-10-3-15c-5-13-10-28-10-32 0-7 3-9 17-13 6-2 20-9 23-12 4-5 2-16-4-24q-3-5-9-8-12-6-13-2m60 16q-12 6-19 20c-4 7-4 11-2 21 4 14 5 22 4 34 0 9 0 13 2 20q2 11 2 4v-20l1-16q3-3 4 15 2 14-3 38l-5 24h3q1 1-6 8l-13 16q-7 12-16 15c-5 2-14 11-14 14l1 1 11 4c11 3 15 3 26 0l7-2 10-12 9-12h-4l3-7c5-8 6-10 6-26 1-16 2-20 6-33 2-7 3-10 3-21l-2-19q-9-30 16-34h5v-4c-2-6-7-18-11-22-3-4-12-9-15-9zm-92 17q-2 3 4 6 9 4 14 0 6-4 4-6-1-2-5 1c-3 2-10 1-13-1q-3-3-4 0m58 7c-3 3-22 12-24 12v4c1 2 3 3 16 4l18 4-2-6-1-13q1-9-2-8zm-57 6-4 10c0 1 10 8 12 8q3 0-2-7-3-2-3-8t-3-3m86 7c-4 5-5 15-2 15 2 0 2 0 5-9 4-8 4-8 1-9zm-63 2q-3 0 4 19c9 23 9 24 9 30q0 15 8 32l6 11 6 1q7 1 10 3l3 1 1-5c5-16 5-16 1-30-2-9-2-11-2-27v-18l-3-1q-10-4-24-6-13-1-15-8-2-4-4-2m37 17-1 25c0 23 0 25-2 25l-15-4q-4 2 2 6c4 2 18 4 20 4l1-26-1-28q-3-4-4-2m44 69v12l-1 10 4 1c5 1 5 1 11-2q3-3 7-3 2 1 2-5v-6l-9-4-11-4q-3-2-3 1m-70 0-1 9q-1 12-7 17t5 2q6-2 5-6l2-7q2-8-2-14-2-3-2-1m-16 8-11 19q-1 7 6-2c5-6 11-17 10-18q-2-2-5 1m62 10 2 9q0 7 3 6c6 1 3-17-4-18zm-25 44c-7 0-14 3-13 5 1 1 29 0 31-2q2-1-2-2l-6-2z"/></svg>