<svg xmlns="http://www.w3.org/2000/svg" width="512" height="512" viewBox="0 0 512 512"><path fill="#fff" fill-rule="evenodd" d="M154 43q-10 4-16 26c-3 15-3 18 6 22l8 5 6 4-2-4q-2-4-8-7l-8-5-2-3 3-11q6-19 13-23 9-5 22 0 19 9 12 29l-1 6 2 2 8 4q10 4 6 5l-9 8 3-1q13-8 19-7l9 3c3 3 6 3 17 4q14 1 18 3l10 3q3-1 4 3c1 5 0 9-5 20l-5 12c-1 4-12 18-15 18q-5 2-3 10 3 6-4 12-5 4-4 7 1 4-1 4l-6-1-15-7 22-32q6-9 7-25l-1-9-1 3q-1 3-11-2l-6-2q1 3 10 8l4 3-3 1q-8 3-18-2-6-2-5-6v-3l-5 3q-9 5-16 0-4-3-7-3-3-2 0 2l8 5 4 4q1 5 3 5l1-3q1-9 14-2 9 6 19 5l5-1-1 3-1 7-2 3-1-3q-1-4-2-2v7q2 0-3 10l-8 11q-3 4-5 2l-13-5q-12-5-12-2l-1 1 13 4 13 5-2 4-1 3-13-5-31-13 2-2q1-2 9 1l8 3 1-3-2-2q-6-1-4-3 1-1-3-3-5-3-3 0 1 4-3 3-7 0-8 4v4l1 4q-3 3-11-2c-7-4-7-5-1-14l6-10v-3q2 0 5 5c5 4 5 4 10 4q4-1 8 1 3 3 13 2h10l3-5 3-8q0-8-4 1-1 5-4 7h-19l-8-10-6-7 3 9q6 10 2 7-15-4-18-26l-4-11-3-7q1-4-2-3l-2 1q-3 0 2 9l4 11 3 10c1 5 1 5-1 11l-2 5h-6q-8-1-8 2-3 7 2 10l4 4q1 6 10 9 9 4 13 0c3-2 3-2 8 1l7 4q5 3 0 19l-7 34-4-1-4-1v-8q0-20-10-24l-13-3-16-4-10-2q-17-7-26 1-8 8-11 17l-1 5-5-1-7-1q-2-1-6 3-6 4-4 14c0 3 0 3 8 5l9 2v6c0 5 3 16 7 21q3 4 11 6c7 3 13 4 39 9 9 2 12 1 17-3q14-12 16-34l2-6 3 1 5 3q2 0 2 3 2 6 10 7h5l2-3 1-4 28 5-1 6q-2 7 1 9v1l-6-1-4-1-5-1-44-7c1 3 10 6 16 7l7 1v18c0 21-1 24-8 31q-7 7-21 12-8 3-10 6-3 2-5 1-9-3-18-2-7-1-7 4-1 4 2 7l5 5q6 1 1 7l-6 16q-4 12-12 26l-7 16q-1 1 3 5 5 5 8 3l65-17q4-1-3-1l-59 14q-5 2-8-2l-3-2 7-14 11-25q9-21 11-22l6 5 6 4 12-1 32-1h20v3q1 3-1 4l-2 2h2l8-3q7-3 4-4-2-2-4 1-4 4-4 0 0-3 4-3l6-1q4 2 10-3 9-6 5-7h-2l2-6q2-9-1-23l-3-19-5-31q-3-9 0-19l2-12 5-20c1-1 29 15 29 16l-8 8c-9 8-11 11-10 17l1 3 2-5q3-7 10-13l8-6q2 3 11-17 7-14 8-21l4-17 2-8-2-5c-2-5-12-15-16-16l-4-4q-4-5 2-15 5-10 3-15c-2-6-18-13-36-15q-14-1-18-3l-10-3-15-4-9-3 2-7 2-11q-1-9-6-14c-10-8-25-11-34-7m83 63q0 5 8 4 9-2 3-3l-7-2-4-2zm-62 2q-9 3-10 8 0 4 3 0l6-4q8-2 8-5 1-2-7 1m41 5q-2 2 2 3l4-3zm43 5-6 10-3 5 7-8q8-7 8-9 1-4-6 2m-33 21c-2 2-5 13-4 13q4-1 5-10 2-7-1-3m44 6q2 6-2 17-6 12-12 13-4-1 2-8 8-8 9-17v-3l-8 8-9 8v8q-2 9 1 8l5 3q3 3 1 6l-4 5-7 5-3 2v-3q1-7-6-2h-9l-6-2c-1-1-8 8-8 10s18 6 21 5q5-2 14 1 11 3 18 10l5 4 6-14 8-21 2-14q3-12 0-15-5-8-14-14-6-3-4 0m-126 5c0 4 6 6 8 4q2-2-2-3-7-3-6-1m125 24-8 4-3 1 2 2 3 2 3 2-1-2-2-1 4-3 5-3v3l3 3q2 2 0 0l-1-6v-5zm-77 4-8 55 1 6h8v-5l7-45c0-8 0-8-5-11zm51 7q-3 3 1 5 3 3 6 1 6-5 4-8l-5-1q-6-2-6 2m-37 0-6 41 8-19 7-15c0-4-8-10-9-7m63 1q-1 1 1 1l3-1-2-1zm-165 2q-10 5-14 15-6 9 5 10l6 2v7l-2 9c-2 2-2 2-10 2l-8-1v4q0 19 11 23c9 4 48 11 52 11 4-1 12-10 15-17 5-9 6-16 6-29l-1-17c-3-7-5-9-17-11s-32-8-35-9q-3-2-9 1m6 19c0 17 0 18-3 26q-4 13-10 19-4 6 0 5c4 0 12-15 16-30 4-12 3-33-1-37q-2-3-2 17m13-9c4 12 3 19-2 37-4 12-4 12-9 19q-8 8 0 5c6-4 16-29 17-44 0-8-1-17-3-18q-3-2-3 1m14 0 2 8c1 10 0 17-5 32q-2 11-8 17l-4 8 5-4c8-7 15-25 16-42 0-9 0-10-2-14zm16 8v15c0 13-5 28-11 37q-7 8-4 8c2 0 8-7 11-13 9-19 12-42 5-50l-2-2zm57 8-5 10-3 7q-5 4 2 3l22 4h3l1-10 2-12q-1-4-14-6h-6zm-143 0-1 6v5l14 2c13 2 15 2 16 0v-9c-1-1-22-6-27-6zm171 18 2 4 2 7q0 5 3-1 3-4-1-7-6-6-6-3m30 0v6l3-6zm-6 9c-2 4-5 13-5 18l4 18c5 17 5 21 1 37-5 20-5 22-1 35q6 17 1 20l-33 5c-7 0-9 0-16-2l-10-5-2-1 3-3 3-3h-10l-17 1q-9-1-7 8l1 4 1-4q0-6 13-5c8 0 8 0 10 3q4 6 19 10h24c22-1 24-2 25-5 0-2 0-2 8 4q7 7 7 9c0 5-2 6-18 6l-33 2c-26 1-29 1-36-5l-20-15 1 4c2 3 4 3-14 6l-26 7q-3 1 0-4c5-9 13-29 13-30q0-6-6 7-19 36-17 37 1 1 6-1l6-1-5-1-4-1 4-2 15-4 32-7q2-1 4 2 1 3 2 2c2 0 11 7 12 10l-2 7-21 56c1 2 10-1 12-3q2-2-1-2l-5 2q-4 0 2-4 4-3 3-5v-5l14-41 1-4h16l31-2h15l4 24 1 4-4 1-21 6-31 8c-26 7-25 7-24 9 2 1 4 1 23-4l62-17h3l-2-3q-3-2-4-13l-3-13v-3h5l5 1 3 13 5 20 2 7h-4l-18 6-39 11q-35 10-47 16-11 5-17-1l-3-2 7-17 12-43c-2 1-2 1-7 16l-14 40-2 5 5 5q5 5 8 3l5-1 58-18 59-20-9-41 3-2c3-2 90-24 94-24 2 0 11 4 17 8l13 7 13 7 4 3 8-2q8-3 8-5c1-3 1-11-1-15s-3-4-18-11c-12-6-11-4-10-36v-28l-4 1q-6 3-9-3-3-4 0-12l2-5c-1-1-5 5-6 8q0 7-2 6t-1-9q1-5 8-8c4 0 11 2 12 4l2 8q0 5 1 3l1-7q0-4-3-7c-2-2-4-3-15-5l-18-4-96-19q-6 0-4 3a1049 1049 0 0 0 112 23q2 0-1 4l-3 5-21-2-64-12q-28-5-35-3l-5 1v-15q-1-4 5-2l10-2-6-1q-5-1-6-5t-3-1m-22 16q-4 5 0 12l2 3 1-6v-9q1-5-3 0m-44 19c-1 23-2 25-11 33q-8 9-23 14-9 2-7 5c0 6 0 6 9 6l15-2c5-2 9-2 20-3l14-1q3 0-2-17c-2-7-2-8 0-15l4-33q0-3-8-4l-8-2c-2 0-2 3-3 19m26-14-4 16c-4 18-5 24-2 36l2 12q-1 5 3 4 3-1 9 6l5 5 1-5 1-7v-2q2-2-1-18l-6-42q0-7-5-6zm40 8 3 10q4 19 0 37-4 20 0 32l3 13v8h6a614 614 0 0 0 79-19l-5-2-8-3c-4-1-4-1-5-9l1-8q4-4 3 6v7l7 3 10 4h10l7-1 1-25c0-24 0-27 2-27l1 27v27l-29 7-50 12-21 4 3 4 4 6 2 4c0 1 57-13 81-20l11-3 6 3 10 6 15 8 13 7q1 3 9 0l6-2v-12l-7 1-7 1-7-5-14-6-11-5-4-3v-68h-11l-3 1q-4 2-3-1c0-3 1-3-21-7l-52-9zm-10 11 2 16q2 16 2 10l1-14c-1-8-1-9-4-12l-2-3zm-8 4q-3 6 0 11 1 4 2 2v-17zm147 19-1 30v22l11 5 17 8q8 5 14 3c2-1 2-1-9-6l-13-9-3-3v-25c0-28 0-27-6-27l-6-3-3-3zm-23 11-1 17-10-3q-8-3-12-2-8 0 1 2l14 4c8 2 8 2 8 6v3l-10-4-13-6q-5 0-2 2l13 6c13 6 14 6 14-1l2-19 1-17-2-3-3-2zm-237 11h-6v4q-1 3 6 6l12 7 7 5h13l66-3q6-3-5-10l-7-5-3 2c-4 2-14 3-19 1q-5-2-7 1l-12 4h-16q-7-1-9-6l-4-5q-4-2-16-1m125 22-2 8-2 5c1 1 7-5 8-8 0-3-2-10-4-10z"/></svg>