<svg xmlns="http://www.w3.org/2000/svg" width="512" height="512" viewBox="0 0 512 512"><path fill="#fff" fill-rule="evenodd" d="m368 56-9 5c-6 4-8 7-12 19l-4 6q-1 1-4-2-8-6-14-6-3 0-7-3-9-6-19-6l-16 5q-11 5-26 7c-14 3-15 3-31 11-19 10-17 8-18 23l-1 9-6 3q-13 5-24 5c-9 0-9 0-21 10-10 10-12 12-15 27-3 18-3 24 1 33 3 9 4 13 2 29l-1 11 3 4 4 4-1 8-1 9c-1 1-19-2-24-5q-13-4-25-4-9 2-12 12l-1 18c0 12 0 14-2 21l-5 19-1 12 4 7 5 7h6c6 0 6 0 10-5s5-8 8-19q1-5 13-19 8-11 21-12h5l-1 4-3 12c-1 7-2 12-8 24-11 22-12 28-5 64 3 19 4 30 2 43-2 12-3 32-1 36 3 5 7 7 20 7 10 1 13 1 19 3 6 3 9 3 18 3q25 0 32-14 8-17-15-20c-8-1-10-3-18-8l-12-8-6-4-1-8c-4-19-4-22 2-40l5-16 2-7v16c0 14 0 14 2 11 2-5 3-37 1-39l-2-4c0-5 5-21 7-24l2-2 4 2 4 2v33l1 32 2-2 1-32v-31h11l34-2 39-3c12-1 21-2 43-2l70-2 6 61c2-4 3-45 2-57l-1-5h15v30l2 35 1 6 1-4 1-11v-32l-1-24 16-1c13-1 16-1 21-3q7-2 9-9 3-7 0-10-3-10-12-18c-9-9-13-10-28-11-11 0-13 0-17-3-7-3-11-3-22-1l-14 5-3 1-2-2c-3-4-14-31-17-42q-2-8-6-14c-5-6-5-6-5-15l-3-15-2-7 3-8c2-7 3-10 3-17q0-17 3-20 4-2 17 3c16 6 19 6 27-5q28-34 17-54c-6-13-13-18-29-20zm-3 6q-12 6-12 18l-1 4c0 2-8 6-11 6l-8-4c-8-5-31-11-37-11l-14 4q-10 5-20 6c-15 3-21 5-29 9l-13 6-7 2-1 15c-1 17-1 18 5 37l6 22 2 13-2 5-2 11c0 9 1 10 11 13q19 5 24-5l1-8c0-5 0-5-6-12-7-7-7-7-7-12l-2-10q-3-15 1-29 4-7 1-10l-3-4q-4 1-3-5-1-7 3-5l1 5q2 9 5-2 1-4 6-5 10-4 11-3-1 3-9 7-7 2-3 3l13 1c9-1 10-1 20-5q9-5 13-5c5-1 13 1 16 4l1 2h-6q-7-2-6 2l-4 26q2 11-3 2c-4-7-4-21 0-29q0-3-7 2-19 11-33 5l-5-2v5l-4 13q-4 12-1 27-1 9 7 8 3 0 3 2 2 3-4 2l-5 1 6 4c6 6 7 9 7 18q-2 15-7 19c-3 1-16 1-22-1q-10-3-12-11c-2-7-2-11 0-20q5-14 0-16-3-3-4-9l-4-17-4-16-1-5-8 3q-9 3-8 5 4 11-2 3l-4-4h-7c-8 1-12 3-21 12-6 7-8 11-10 24q-3 15 3 29c6 12 6 14 3 26-4 13-3 14 3 17s27 5 35 5l12-3q8-2 8-5 2-6 4-2a148 148 0 0 1-12 54l9-1 17-1q9 0 12-2c6-4 6-5 6-23l-4-30-6 2-14 3 11-6q12-7 11-4l4 11 3 16v20l1 6-5 5c-8 8-10 8-31 9h-19v8l-2 13-2 6c1 0 60-2 75-4l65-2 126-6q12-5 4-20c-5-7-15-17-18-17l-25-3 2 3q3 2 1 8t-6 6l-9 1q-6 0-12 3l-5 3-14-1c-14-2-14-2-18-5l-8-10q-4-7-6-6l-89 2-3-2h20l70-4-11-16c-9-11-10-13-11-20-3-11-11-34-15-42q-3-5-3-12l-1-6-4 2q-6 5-7 1-2-1 7-7l17-8q13-3 19-16l3-9q-2-3 1-5 3-5 1-14l-1-4 5 6c5 5 5 5 10 5q10 0 23 7l5 2 3-3q5-4 15-17c4-6 5-8 7-17q3-11 1-15-4-16-18-22-14-4-23 0m-1 27q-4 4-4 7l2 12q1 15 6 15c2 0 0-12-2-21l-2-7 2-5 2-5zm-113 5q-12 6-8 7c4 0 18-8 18-10q2-3-10 3m73 5q-3 0-1 3l-4 12-2 3c1 1 9-5 10-7V98zm26 4-8 2h8q9 1 8-2v-2zm-134 14c-1 3-2 22-1 24h2q3 0 2-12l-1-13q-1-3-2 1m124 18-3 7q-2 11-9 19-5 7-19 12-4 0-2 5 1 14 4 18l5 10q1 7 3 10l4 12c3 13 5 16 11 23l13 18c13 19 16 21 33 23 8 0 8 0 13-2q4-3 16-4l10-1c0-2-13-14-15-14l-14 2-17 2c-6 0-7-1-16-24l-6-18q-3-16-6-19l-4 3-4 3 1-7c1-9 1-13-1-26l-2-11 3-11c3-9 4-12 4-20q0-13-2-10m-82 2 3 9 2 8q3 1 4-3-1-6-7-14-4-3-2 0m-63 0c-1 2-1 2 3 12q4 10 6 9l2-1-8-20zm78 1v9q1 6-2 9l-2 3 2-1q5-1 8-10l2-5-4-3q-6-7-4-2m-19 18q-7 1 2 3l4 2v-3l-1-3zm-62 18 3 2-2 3c-4 4-5 7-5 24 0 23 1 25 13 25q6-1 5 3 0 6 5-1l3-5v-44l-6-3c-7 0-7-1-12-4l-5-3q-2 0 1 3m70 6c-2 1-2 4-2 24l1 24h10q12 0 13-2l3-2v-18q1-18-2-22l-1-5h-6q-15-2-16 1m-70 4 2 37q-1 2 6 2h6l2-5 2-20v-15h-4l-8-1q-6-1-6 2m80 2-8 1 1 10v24q-3 3 8 2h9v-3l1-16q0-21-3-19zm-119 77 2 18c2 10 1 12-2 24-3 10-3 11-3 22v10q-3 1-1-6v-5c-2 0-10 18-13 27s-3 10-3 22l4 28q4 29 0 47l-2 12q1 10 6 17l3 4h11c8 0 11 0 18 3q19 6 39-3l7-3v-5c-2-7-2-7-9-7-9-1-12-3-24-12l-19-12-2-11c-2-10-3-23-1-28q2-2-1-6-3-7 2-28 4-17 7-17t4-8l6-18q7-11 7-18 1-7 5-14c4-7 11-30 12-39l1-4-4 2c-8 3-13 4-23 3a87 87 0 0 1-28-6zm16-2-1 10q0 14-3 23 0 4 2 3l3-3c3-10 4-34 2-34zm-71 3q-10 3-8 25c0 12 0 13-2 20-4 10-5 34-3 39q2 4 5 2c7-3 8-3 12-16 3-11 3-11 11-20l10-12q5-6 19-8h7v-8l-2-12v-4l-8 1q-8 0-14-2l-23-6zm13 13-6 7-3 4 3-1 7-6 6-3 3-1q2-1-1-1-6-2-9 1m75 16-8 2c-4 1-5 2-6 11l-1 3 1-3q3-5 8-6 7-2 10-7l1-2zm214 8-78 2q-96 1-99 4l5 2c7 2 68 1 73-1l51-1a1135 1135 0 0 0 100-5c-4-1-41-2-52-1m-233 24v15l3-2q3-3 2-9 0-8-3-7-2 0-2 3m4 43c-4 12-6 25-5 25 2 0 5-9 6-15 2-7 3-22 3-22zm-11 78c-4 4-5 12-2 15q2 2 2-1l2-16zm-18 11c0 10 1 12 5 15q6 3 3-3l-3-10-4-9q-1-2-1 7"/></svg>